<svg width="36" height="36" viewBox="0 0 36 36" fill="none" xmlns="http://www.w3.org/2000/svg">
<g clip-path="url(#clip0_6091_14166)">
<rect x="0.947357" y="0.947357" width="34.1053" height="34.1053" rx="10" fill="url(#paint0_linear_6091_14166)"/>
<rect x="0.947357" y="0.947357" width="34.1053" height="34.1053" rx="10" fill="url(#paint1_linear_6091_14166)"/>
<g filter="url(#filter0_d_6091_14166)">
<path fill-rule="evenodd" clip-rule="evenodd" d="M24.9092 7.57895L24.9821 7.58273C25.3402 7.61968 25.6197 7.9219 25.6197 8.28948C25.6197 8.65705 25.3402 8.95926 24.9821 8.99621L24.9092 9H12.5526C11.6498 9 10.9156 9.72189 10.8957 10.62C10.8967 10.6323 10.8985 10.6456 10.8985 10.6579V10.7308C10.9364 11.6128 11.6612 12.3158 12.5526 12.3158H22.7369V11.3684H12.5526C12.1604 11.3684 11.8421 11.0501 11.8421 10.6579C11.8421 10.2657 12.1604 9.94737 12.5526 9.94737H23.4474L23.5203 9.95115C23.8784 9.9881 24.1579 10.2903 24.1579 10.6579V12.3158H25.3232C25.3298 12.3158 25.3355 12.3148 25.3421 12.3148C25.7343 12.3148 26.0526 12.6332 26.0526 13.0254V27.2359C26.0526 27.6281 25.7343 27.9464 25.3421 27.9464H13.0301C11.0662 27.9464 9.47464 26.3529 9.47748 24.389V10.8009C9.47559 10.7536 9.47369 10.7062 9.47369 10.6579C9.47369 8.95737 10.8521 7.57895 12.5526 7.57895H24.9092Z" fill="url(#paint2_linear_6091_14166)"/>
</g>
</g>
<defs>
<filter id="filter0_d_6091_14166" x="6.47369" y="5.57895" width="22.5789" height="26.3675" filterUnits="userSpaceOnUse" color-interpolation-filters="sRGB">
<feFlood flood-opacity="0" result="BackgroundImageFix"/>
<feColorMatrix in="SourceAlpha" type="matrix" values="0 0 0 0 0 0 0 0 0 0 0 0 0 0 0 0 0 0 127 0" result="hardAlpha"/>
<feOffset dy="1"/>
<feGaussianBlur stdDeviation="1.5"/>
<feComposite in2="hardAlpha" operator="out"/>
<feColorMatrix type="matrix" values="0 0 0 0 0 0 0 0 0 0 0 0 0 0 0 0 0 0 0.2 0"/>
<feBlend mode="normal" in2="BackgroundImageFix" result="effect1_dropShadow_6091_14166"/>
<feBlend mode="normal" in="SourceGraphic" in2="effect1_dropShadow_6091_14166" result="shape"/>
</filter>
<linearGradient id="paint0_linear_6091_14166" x1="30.0372" y1="35.0526" x2="2.452" y2="5.96284" gradientUnits="userSpaceOnUse">
<stop stop-color="#996830"/>
<stop offset="1" stop-color="#D9A33F"/>
</linearGradient>
<linearGradient id="paint1_linear_6091_14166" x1="4" y1="1" x2="24.5" y2="33.5" gradientUnits="userSpaceOnUse">
<stop stop-color="#3AA8FD"/>
<stop offset="1" stop-color="#6158F8"/>
</linearGradient>
<linearGradient id="paint2_linear_6091_14166" x1="24" y1="26" x2="10.5" y2="26" gradientUnits="userSpaceOnUse">
<stop stop-color="#F5E399"/>
<stop offset="1" stop-color="white"/>
</linearGradient>
<clipPath id="clip0_6091_14166">
<rect width="34.1053" height="34.1053" fill="white" transform="translate(0.947357 0.947357)"/>
</clipPath>
</defs>
</svg>
